<?xml version="1.0" encoding="UTF-8"?>
<svg id="_レイヤー_2" data-name="レイヤー 2" xmlns="http://www.w3.org/2000/svg" viewBox="0 0 130.36 36.81">
  <defs>
    <style>
      .cls-1 {
        fill: #ebc92b;
        stroke-width: 0px;
      }
    </style>
  </defs>
  <g id="_レイヤー_1-2" data-name="レイヤー 1">
    <path class="cls-1" d="M30.61,36.81h-11.91l-9.13-14.16v14.16H0V0h14.89c2.05,0,3.84.3,5.37.9,1.53.6,2.79,1.42,3.78,2.46.99,1.04,1.74,2.25,2.25,3.61.5,1.37.76,2.83.76,4.39,0,2.8-.68,5.07-2.03,6.81-1.35,1.74-3.34,2.92-5.98,3.54l11.57,15.09ZM9.57,16.45h1.81c1.89,0,3.34-.39,4.34-1.17s1.51-1.9,1.51-3.37-.5-2.59-1.51-3.37c-1.01-.78-2.46-1.17-4.34-1.17h-1.81v9.08Z"/>
    <path class="cls-1" d="M118.56,8.95c-4.4,0-8.12,1.08-10.77,2.74l1.17,6.15c2.38-1.7,4.98-2.74,8.57-2.74s4.93,1.3,4.93,3.63v.99h-3.36c-8.43,0-12.97,2.74-12.97,8.84,0,5.16,3.72,8.25,8.84,8.25,3.54,0,6.06-1.53,7.76-3.72l.13,3.1h7.49v-17.68c0-5.79-3.19-9.56-11.8-9.56Z"/>
    <path class="cls-1" d="M62.87,13.37s0,0,0,0h0c0-.29-.03-.57-.08-.84-.04-.2-.1-.39-.17-.58-.02-.06-.03-.13-.06-.19-.09-.24-.21-.46-.34-.68,0,0,0,0,0-.01-.78-1.26-2.16-2.12-3.75-2.12-1.31,0-2.48.58-3.29,1.49h0s0,0,0,0c-.17.19-.33.4-.47.63,0,0,0,.01,0,.01-.13.22-.25.44-.34.68-.03.07-.04.14-.07.21-.06.18-.13.36-.16.56-.05.27-.09.55-.09.84h0v11.58c.01,3.09-1.48,4.64-4.48,4.64s-4.49-1.55-4.49-4.64v-14.11h-8.84v15.82c0,3.39,1.12,5.92,3.34,7.62,2.23,1.69,5.56,2.54,9.98,2.54s7.75-.85,9.98-2.54c2.23-1.69,3.34-4.23,3.34-7.62v-10.58s-.01-2.7-.01-2.7c0,0,0,0,0,0Z"/>
    <path class="cls-1" d="M97.35,15.05c-.26-1.04-.75-1.98-1.46-2.83-.88-1.04-1.95-1.85-3.2-2.42-1.25-.57-2.76-.85-4.52-.85-1.66,0-3.11.25-4.35.76-1.24.5-2.46,1.49-3.66,2.95v-3.17h-8.84v25.05h8.84v-13.38c0-1.66.4-2.94,1.2-3.83.8-.89,1.94-1.34,3.44-1.34.55,0,1.07.08,1.56.24.49.16.93.44,1.32.83.46.46.77,1.07.95,1.83.18.76.27,1.77.27,3v10.49s0,.01,0,.02,0,.01,0,.02h0c0,.25.03.49.07.72.02.11.04.22.07.33.02.08.05.16.08.24.56,1.8,2.22,3.11,4.2,3.11s3.63-1.31,4.2-3.1c.03-.09.06-.18.08-.27.03-.1.05-.21.07-.31.04-.24.07-.49.07-.74h0v-13.77c0-1.33-.13-2.52-.39-3.56Z"/>
  </g>
</svg>